# xmcd
#
# Track frame offsets:
#	150
#	15055
#	28690
#	44977
#	66687
#	78637
#	93970
#	105020
#	115950
#	127685
#
# Disc length: 1845 seconds
#
# Revision: 1
# Processed by: cddbd v1.5.1PL0 Copyright (c) Steve Scherf et al.
# Submitted via: audiograbber 1.81.01
#
DISCID=7707330a
DTITLE=Amigos Sertanejos - Festival Amigos da Música Sertaneja
DYEAR=1900
DGENRE=
TTITLE0=Hoje Eu Sei
TTITLE1=Rosto Molhado
TTITLE2=Pensando em Minha Amada
TTITLE3=Evidências
TTITLE4=Fio de Cabelo
TTITLE5=Na Hora H
TTITLE6=Muda de Vida
TTITLE7=Você Só Me Faz Feliz
TTITLE8=Pedindo Amor
TTITLE9=Mexe Mexe
EXTD=
EXTT0=
EXTT1=
EXTT2=
EXTT3=
EXTT4=
EXTT5=
EXTT6=
EXTT7=
EXTT8=
EXTT9=
PLAYORDER=
